<svg width="35" height="16" viewBox="0 0 35 16" fill="none" xmlns="http://www.w3.org/2000/svg">
<path d="M25.1432 15.9999C24.8746 15.9999 24.6567 15.7821 24.6567 15.5135V15.5135C24.6567 15.2448 24.8746 15.027 25.1432 15.027H27.82C28.4294 15.027 28.9234 14.5329 28.9234 13.9235V2.99599C28.9234 1.87871 28.0177 0.972967 26.9004 0.972967H25.1432C24.8745 0.972967 24.6567 0.755161 24.6567 0.486484V0.486484C24.6567 0.217806 24.8745 0 25.1432 0H27.0475C28.6726 0 29.9901 1.31744 29.9901 2.94258V13.9235C29.9901 14.5329 30.4841 15.027 31.0936 15.027H33.7614C34.0301 15.027 34.2479 15.2448 34.2479 15.5135V15.5135C34.2479 15.7821 34.0301 15.9999 33.7614 15.9999H25.1432Z" fill="black"/>
<path d="M20.52 8.42655C20.2549 8.42655 20.04 8.21165 20.04 7.94655V7.94655C20.04 7.68146 20.2549 7.46655 20.52 7.46655H24.8934C25.1585 7.46655 25.3734 7.68146 25.3734 7.94655V7.94655C25.3734 8.21165 25.1585 8.42655 24.8934 8.42655H20.52Z" fill="#F15A22"/>
<path d="M21.0863 13.5004C21.0863 14.8809 19.9672 16 18.5868 15.9999L15.3888 15.9999C13.7637 15.9998 12.4463 14.6824 12.4463 13.0573L12.4463 2.94262C12.4463 1.31748 13.7637 4.41415e-05 15.3889 3.4345e-05L18.5867 1.50678e-05C19.9672 6.74612e-06 21.0863 1.11911 21.0863 2.49959V3.41337C21.0863 3.70792 20.8475 3.94671 20.553 3.94671V3.94671C20.2584 3.94671 20.0196 3.70792 20.0196 3.41337V2.6374C20.0196 1.71281 19.2669 0.964984 18.3423 0.971047L15.5289 0.989495C14.4144 0.996803 13.5157 1.90414 13.5191 3.01866L13.5495 12.9592C13.5529 14.074 14.4576 14.976 15.5725 14.976H18.3829C19.2869 14.976 20.0196 14.2432 20.0196 13.3393V12.5867C20.0196 12.2921 20.2584 12.0533 20.553 12.0533V12.0533C20.8475 12.0533 21.0863 12.2921 21.0863 12.5867V13.5004Z" fill="black"/>
<path d="M9.14002 13.5004C9.14002 14.8809 8.02092 16 6.64047 15.9999L3.44253 15.9999C1.81741 15.9998 0.5 14.6824 0.5 13.0573L0.5 2.94262C0.5 1.31748 1.81743 4.41415e-05 3.44257 3.4345e-05L6.64043 1.50678e-05C8.02091 6.74612e-06 9.14002 1.11911 9.14002 2.49959V3.41337C9.14002 3.70792 8.90123 3.94671 8.60668 3.94671V3.94671C8.31213 3.94671 8.07335 3.70792 8.07335 3.41337V2.6374C8.07335 1.71281 7.3206 0.964984 6.39603 0.971047L3.58257 0.989495C2.46808 0.996803 1.56942 1.90414 1.57282 3.01866L1.60318 12.9592C1.60658 14.074 2.51132 14.976 3.6262 14.976H6.43666C7.34058 14.976 8.07335 14.2432 8.07335 13.3393V12.5867C8.07335 12.2921 8.31213 12.0533 8.60668 12.0533V12.0533C8.90123 12.0533 9.14002 12.2921 9.14002 12.5867V13.5004Z" fill="black"/>
</svg>
